<svg xmlns="http://www.w3.org/2000/svg" xmlns:xlink="http://www.w3.org/1999/xlink" version="1.1" x="0px" y="0px" viewBox="0 0 64 64" style="enable-background:new 0 0 64 64;" xml:space="preserve">
<style type="text/css">
	.st0{opacity:0.83;}
	.st1{fill:none;stroke:#FFFFFF;stroke-miterlimit:10;}
</style>
<g id="Layer_2">
</g>
<g id="Layer_1">
	<g id="XMLID_1_">
		<g id="XMLID_5312_" class="st0">
			<g id="XMLID_217_">
				<g id="XMLID_238_">
					<line id="XMLID_247_" class="st1" x1="1.7" y1="28.8" x2="16.9" y2="19.5"/>
					<line id="XMLID_246_" class="st1" x1="1.2" y1="11" x2="16.4" y2="1.7"/>
					<line id="XMLID_245_" class="st1" x1="17.3" y1="37.3" x2="32.5" y2="28"/>
					<line id="XMLID_244_" class="st1" x1="32.5" y1="28" x2="16.9" y2="19.5"/>
					<line id="XMLID_243_" class="st1" x1="32" y1="10.1" x2="16.4" y2="1.7"/>
					<line id="XMLID_242_" class="st1" x1="17.3" y1="37.3" x2="1.7" y2="28.8"/>
					<line id="XMLID_241_" class="st1" x1="16.4" y1="1.7" x2="16.9" y2="19.5"/>
					<line id="XMLID_240_" class="st1" x1="1.2" y1="11" x2="1.7" y2="28.8"/>
					<line id="XMLID_239_" class="st1" x1="32" y1="10.1" x2="32.5" y2="28"/>
				</g>
				<g id="XMLID_228_">
					<line id="XMLID_237_" class="st1" x1="17.9" y1="55.2" x2="33.1" y2="45.9"/>
					<line id="XMLID_236_" class="st1" x1="17.4" y1="37.4" x2="32.6" y2="28.1"/>
					<line id="XMLID_235_" class="st1" x1="33.6" y1="63.7" x2="48.8" y2="54.4"/>
					<line id="XMLID_234_" class="st1" x1="48.8" y1="54.4" x2="33.1" y2="45.9"/>
					<line id="XMLID_233_" class="st1" x1="48.3" y1="36.6" x2="32.6" y2="28.1"/>
					<line id="XMLID_232_" class="st1" x1="33.6" y1="63.7" x2="17.9" y2="55.2"/>
					<line id="XMLID_231_" class="st1" x1="32.6" y1="28.1" x2="33.1" y2="45.9"/>
					<line id="XMLID_230_" class="st1" x1="17.4" y1="37.4" x2="17.9" y2="55.2"/>
					<line id="XMLID_229_" class="st1" x1="48.3" y1="36.6" x2="48.8" y2="54.4"/>
				</g>
				<g id="XMLID_218_">
					<line id="XMLID_227_" class="st1" x1="32.6" y1="27.9" x2="47.8" y2="18.5"/>
					<line id="XMLID_226_" class="st1" x1="32.1" y1="10.1" x2="47.3" y2="0.7"/>
					<line id="XMLID_225_" class="st1" x1="48.2" y1="36.4" x2="63.4" y2="27"/>
					<line id="XMLID_224_" class="st1" x1="63.4" y1="27" x2="47.8" y2="18.5"/>
					<line id="XMLID_223_" class="st1" x1="62.9" y1="9.2" x2="47.3" y2="0.7"/>
					<line id="XMLID_222_" class="st1" x1="48.2" y1="36.4" x2="32.6" y2="27.9"/>
					<line id="XMLID_221_" class="st1" x1="47.3" y1="0.7" x2="47.8" y2="18.5"/>
					<line id="XMLID_220_" class="st1" x1="32.1" y1="10.1" x2="32.6" y2="27.9"/>
					<line id="XMLID_219_" class="st1" x1="62.9" y1="9.2" x2="63.4" y2="27"/>
				</g>
			</g>
		</g>
	</g>
</g>
</svg>